<svg width="199" height="148" viewBox="0 0 199 148" fill="none" xmlns="http://www.w3.org/2000/svg">
<path fill-rule="evenodd" clip-rule="evenodd" d="M99 25.1547L50.1547 49.5774V98.4226L99 122.845L147.845 98.4226V49.5774L99 25.1547ZM149 49L99 24L49 49V99L99 124L149 99V49Z" fill="#F52929" opacity="1"/>
<path d="M1.1547 0V24.4226L50 48.8453L98.8453 24.4226V0H100V25L50 50L0 25V0H1.1547Z" fill="#F52929" opacity="1"/>
<path d="M100.155 0V24.4226L149 48.8453L197.845 24.4226V0H199V25L149 50L99 25V0H100.155Z" fill="#F52929" opacity="1"/>
<path d="M98.8453 148V123.577L50 99.1547L1.1547 123.577V148H0V123L50 98L100 123V148H98.8453Z" fill="#F52929" opacity="1"/>
<path d="M197.845 148V123.577L149 99.1547L100.155 123.577V148H99V123L149 98L199 123V148H197.845Z" fill="#F52929" opacity="1"/>
</svg>
