
                    <svg class="w-10 h-10" viewBox="0 0 75 78" fill="none" xmlns="http://www.w3.org/2000/svg">
                      <path d="M8.2998 44.5992C8.2998 26.4992 22.9998 11.6992 41.1998 11.6992C59.2998 11.6992 74.0998 26.3992 74.0998 44.5992C74.0998 62.6992 59.3998 77.4992 41.1998 77.4992C23.0998 77.3992 8.2998 62.6992 8.2998 44.5992ZM70.8998 44.5992C70.8998 28.1992 57.5998 14.8992 41.1998 14.8992C24.7998 14.8992 11.4998 28.1992 11.4998 44.5992C11.4998 60.9992 24.7998 74.2992 41.1998 74.2992C57.5998 74.2992 70.8998 60.9992 70.8998 44.5992ZM16.6998 44.5992C16.6998 31.0992 27.6998 20.0992 41.1998 20.0992C54.6998 20.0992 65.6998 31.0992 65.6998 44.5992C65.6998 58.0992 54.6998 69.0992 41.1998 69.0992C27.6998 69.0992 16.6998 58.0992 16.6998 44.5992ZM62.5998 44.5992C62.5998 32.7992 52.9998 23.1992 41.1998 23.1992C29.3998 23.1992 19.7998 32.7992 19.7998 44.5992C19.7998 56.3992 29.3998 65.9992 41.1998 65.9992C52.9998 65.8992 62.5998 56.3992 62.5998 44.5992Z" fill="#9D9D9D"></path>
                      <path d="M0 32.9C0 14.8 14.7 0 32.9 0C51 0 65.8 14.7 65.8 32.9C65.8 51 51.1 65.8 32.9 65.8C14.7 65.7 0 51 0 32.9ZM62.6 32.9C62.6 16.5 49.3 3.2 32.9 3.2C16.5 3.2 3.19998 16.5 3.19998 32.9C3.19998 49.3 16.5 62.6 32.9 62.6C49.3 62.6 62.6 49.2 62.6 32.9ZM8.29999 32.9C8.29999 19.4 19.3 8.4 32.8 8.4C46.3 8.4 57.3 19.4 57.3 32.9C57.3 46.4 46.3 57.4 32.8 57.4C19.3 57.4 8.29999 46.4 8.29999 32.9ZM54.2 32.9C54.2 21.1 44.6 11.5 32.8 11.5C21 11.5 11.4 21.1 11.4 32.9C11.4 44.7 21 54.3 32.8 54.3C44.6 54.2 54.2 44.6 54.2 32.9Z" fill="#fffafa"></path>
                      <path d="M0 32.9C0 14.8 14.7 0 32.9 0C51 0 65.8 14.7 65.8 32.9C65.8 51 51.1 65.8 32.9 65.8C14.7 65.7 0 51 0 32.9ZM62.6 32.9C62.6 16.5 49.3 3.2 32.9 3.2C16.5 3.2 3.19998 16.5 3.19998 32.9C3.19998 49.3 16.5 62.6 32.9 62.6C49.3 62.6 62.6 49.2 62.6 32.9ZM8.29999 32.9C8.29999 19.4 19.3 8.4 32.8 8.4C46.3 8.4 57.3 19.4 57.3 32.9C57.3 46.4 46.3 57.4 32.8 57.4C19.3 57.4 8.29999 46.4 8.29999 32.9ZM54.2 32.9C54.2 21.1 44.6 11.5 32.8 11.5C21 11.5 11.4 21.1 11.4 32.9C11.4 44.7 21 54.3 32.8 54.3C44.6 54.2 54.2 44.6 54.2 32.9Z" fill="#fffafa" fill-opacity="0.2"></path>
                    </svg>
                  