
                    <svg class="w-10 h-10" viewBox="0 0 142 123" fill="none" xmlns="http://www.w3.org/2000/svg">
                      <path d="M141.4 61.7H71.1996L36.0996 1H106.3L141.4 61.7Z" stroke="#9D9D9D" stroke-miterlimit="10" stroke-linejoin="round"></path>
                      <path d="M141.4 61.7002H71.1996L36.0996 122.5H106.3L141.4 61.7002Z" stroke="#9D9D9D" stroke-miterlimit="10" stroke-linejoin="round"></path>
                      <path d="M50.3996 25.7998H91.8996L112.7 61.6998L91.8996 97.6998H50.3996L29.5996 61.6998L50.3996 25.7998Z" fill="#fffafa"></path>
                      <path d="M50.3996 25.7998H91.8996L112.7 61.6998L91.8996 97.6998H50.3996L29.5996 61.6998L50.3996 25.7998Z" fill="#fffafa" fill-opacity="0.2"></path>
                      <path d="M36.1 1H106.3L141.4 61.7L106.3 122.5H36.1L1 61.7L36.1 1Z" stroke="#9D9D9D" stroke-miterlimit="10" stroke-linejoin="round"></path>
                      <path d="M106.299 1L71.1992 61.7L106.299 122.5L141.399 61.7L106.299 1Z" stroke="#9D9D9D" stroke-miterlimit="10" stroke-linejoin="round"></path>
                      <path d="M71.2 61.7002H1L36.1 122.5H106.3L71.2 61.7002Z" stroke="#9D9D9D" stroke-miterlimit="10" stroke-linecap="round" stroke-linejoin="round"></path>
                    </svg>
                  