
                    <svg class="w-10 h-10" viewBox="0 0 71 72" fill="none" xmlns="http://www.w3.org/2000/svg">
                      <path fill-rule="evenodd" clip-rule="evenodd" d="M25.0753 25.4554C19.9752 22.6862 14.313 20.4515 9.32073 20.4515C-3.16641 20.4515 -3.04727 51.3383 9.32073 51.3383C14.2772 51.3383 19.894 49.1355 24.9654 46.3939C22.2207 51.4684 20.0144 57.0903 20.0144 62.0507C20.0144 74.4187 50.9012 74.5378 50.9012 62.0507C50.9012 57.0856 48.6908 51.4578 45.9425 46.3795C51.0208 49.1278 56.6486 51.3383 61.6137 51.3383C73.9817 51.3383 74.1008 20.4515 61.6137 20.4515C56.6935 20.4515 51.1227 22.622 46.0806 25.3357C48.8055 20.2818 50.989 14.6925 50.989 9.75775C50.989 -2.61026 20.1022 -2.72939 20.1022 9.75775C20.1022 14.7315 22.3203 20.3702 25.0753 25.4554Z" fill="#fffafa"></path>
                      <path fill-rule="evenodd" clip-rule="evenodd" d="M25.0753 25.4554C19.9752 22.6862 14.313 20.4515 9.32073 20.4515C-3.16641 20.4515 -3.04727 51.3383 9.32073 51.3383C14.2772 51.3383 19.894 49.1355 24.9654 46.3939C22.2207 51.4684 20.0144 57.0903 20.0144 62.0507C20.0144 74.4187 50.9012 74.5378 50.9012 62.0507C50.9012 57.0856 48.6908 51.4578 45.9425 46.3795C51.0208 49.1278 56.6486 51.3383 61.6137 51.3383C73.9817 51.3383 74.1008 20.4515 61.6137 20.4515C56.6935 20.4515 51.1227 22.622 46.0806 25.3357C48.8055 20.2818 50.989 14.6925 50.989 9.75775C50.989 -2.61026 20.1022 -2.72939 20.1022 9.75775C20.1022 14.7315 22.3203 20.3702 25.0753 25.4554Z" fill="#fffafa" fill-opacity="0.2"></path>
                    </svg>
                  