
                    <svg class="w-10 h-10" viewBox="0 0 75 75" fill="none" xmlns="http://www.w3.org/2000/svg">
                      <path fill-rule="evenodd" clip-rule="evenodd" d="M4.60982 4.61425C9.03933 0.254888 16.6641 -0.166313 25.5475 2.87381C29.1936 4.12159 33.031 5.94682 36.912 8.30032C31.4565 11.5551 25.9202 15.8172 20.6955 20.9591C15.471 26.1009 11.1212 31.5683 7.77979 36.9711C5.48856 33.053 3.72483 29.187 2.53541 25.5215C-0.362539 16.5907 0.180307 8.97362 4.60982 4.61425ZM7.55216 37.3415C-0.439162 23.7644 -2.16531 10.7436 4.3406 4.34071C10.8465 -2.0622 23.8381 -0.128419 37.2861 8.07864C50.8631 0.0875643 63.8836 -1.63846 70.2864 4.86737C76.6893 11.3732 74.7556 24.3646 66.5488 37.8124C74.5399 51.3894 76.2659 64.41 69.7601 70.8128C63.2542 77.2156 50.2629 75.282 36.8152 67.0752C23.238 75.0666 10.2172 76.7928 3.81434 70.2868C-2.58853 63.7809 -0.654804 50.7894 7.55216 37.3415ZM36.4447 66.8476C32.5267 69.1389 28.6607 70.9026 24.9951 72.092C16.0643 74.99 8.44725 74.4471 4.08789 70.0176C-0.271479 65.5881 -0.692681 57.9633 2.34744 49.0799C3.59521 45.4339 5.4204 41.5966 7.77384 37.7156C11.0286 43.171 15.2906 48.7071 20.4323 53.9316C25.5742 59.1563 31.0418 63.5061 36.4447 66.8476ZM36.8188 66.6274C31.3895 63.2903 25.884 58.9239 20.7059 53.6624C15.5278 48.4011 11.25 42.8268 8.00005 37.3451C11.337 31.916 15.7034 26.4107 20.9647 21.2326C26.2262 16.0545 31.8006 11.7765 37.2825 8.52653C42.7116 11.8635 48.2168 16.2298 53.3948 21.4911C58.573 26.7526 62.8509 32.327 66.1009 37.8088C62.7639 43.2381 58.3975 48.7435 53.136 53.9216C47.8747 59.0996 42.3005 63.3775 36.8188 66.6274ZM37.1893 66.8536C41.0701 69.2069 44.9073 71.032 48.5532 72.2797C57.4366 75.3198 65.0613 74.8986 69.4909 70.5392C73.9204 66.1799 74.4632 58.5628 71.5653 49.632C70.3759 45.9666 68.6122 42.1008 66.3211 38.1829C62.9797 43.5857 58.6298 49.0533 53.4053 54.1951C48.1808 59.3369 42.6447 63.5988 37.1893 66.8536ZM66.3271 37.4383C68.6805 33.5575 70.5056 29.7202 71.7533 26.0743C74.7934 17.1909 74.3722 9.56609 70.0129 5.13658C65.6535 0.707074 58.0364 0.164229 49.1056 3.06217C45.4403 4.25155 41.5745 6.01518 37.6566 8.30627C43.0593 11.6477 48.5266 15.9974 53.6684 21.2219C58.8102 26.4465 63.0723 31.9828 66.3271 37.4383ZM37.0503 19.4421L37.3447 30.1037C37.4544 34.0751 40.648 37.2688 44.6195 37.3784L55.281 37.6728L44.6195 37.9672C40.648 38.0769 37.4544 41.2705 37.3447 45.242L37.0503 55.9035L36.7559 45.242C36.6463 41.2705 33.4526 38.0769 29.4812 37.9672L18.8196 37.6728L29.4812 37.3784C33.4526 37.2688 36.6463 34.0751 36.7559 30.1037L37.0503 19.4421Z" fill="#fffafa"></path>
                      <path fill-rule="evenodd" clip-rule="evenodd" d="M4.60982 4.61425C9.03933 0.254888 16.6641 -0.166313 25.5475 2.87381C29.1936 4.12159 33.031 5.94682 36.912 8.30032C31.4565 11.5551 25.9202 15.8172 20.6955 20.9591C15.471 26.1009 11.1212 31.5683 7.77979 36.9711C5.48856 33.053 3.72483 29.187 2.53541 25.5215C-0.362539 16.5907 0.180307 8.97362 4.60982 4.61425ZM7.55216 37.3415C-0.439162 23.7644 -2.16531 10.7436 4.3406 4.34071C10.8465 -2.0622 23.8381 -0.128419 37.2861 8.07864C50.8631 0.0875643 63.8836 -1.63846 70.2864 4.86737C76.6893 11.3732 74.7556 24.3646 66.5488 37.8124C74.5399 51.3894 76.2659 64.41 69.7601 70.8128C63.2542 77.2156 50.2629 75.282 36.8152 67.0752C23.238 75.0666 10.2172 76.7928 3.81434 70.2868C-2.58853 63.7809 -0.654804 50.7894 7.55216 37.3415ZM36.4447 66.8476C32.5267 69.1389 28.6607 70.9026 24.9951 72.092C16.0643 74.99 8.44725 74.4471 4.08789 70.0176C-0.271479 65.5881 -0.692681 57.9633 2.34744 49.0799C3.59521 45.4339 5.4204 41.5966 7.77384 37.7156C11.0286 43.171 15.2906 48.7071 20.4323 53.9316C25.5742 59.1563 31.0418 63.5061 36.4447 66.8476ZM36.8188 66.6274C31.3895 63.2903 25.884 58.9239 20.7059 53.6624C15.5278 48.4011 11.25 42.8268 8.00005 37.3451C11.337 31.916 15.7034 26.4107 20.9647 21.2326C26.2262 16.0545 31.8006 11.7765 37.2825 8.52653C42.7116 11.8635 48.2168 16.2298 53.3948 21.4911C58.573 26.7526 62.8509 32.327 66.1009 37.8088C62.7639 43.2381 58.3975 48.7435 53.136 53.9216C47.8747 59.0996 42.3005 63.3775 36.8188 66.6274ZM37.1893 66.8536C41.0701 69.2069 44.9073 71.032 48.5532 72.2797C57.4366 75.3198 65.0613 74.8986 69.4909 70.5392C73.9204 66.1799 74.4632 58.5628 71.5653 49.632C70.3759 45.9666 68.6122 42.1008 66.3211 38.1829C62.9797 43.5857 58.6298 49.0533 53.4053 54.1951C48.1808 59.3369 42.6447 63.5988 37.1893 66.8536ZM66.3271 37.4383C68.6805 33.5575 70.5056 29.7202 71.7533 26.0743C74.7934 17.1909 74.3722 9.56609 70.0129 5.13658C65.6535 0.707074 58.0364 0.164229 49.1056 3.06217C45.4403 4.25155 41.5745 6.01518 37.6566 8.30627C43.0593 11.6477 48.5266 15.9974 53.6684 21.2219C58.8102 26.4465 63.0723 31.9828 66.3271 37.4383ZM37.0503 19.4421L37.3447 30.1037C37.4544 34.0751 40.648 37.2688 44.6195 37.3784L55.281 37.6728L44.6195 37.9672C40.648 38.0769 37.4544 41.2705 37.3447 45.242L37.0503 55.9035L36.7559 45.242C36.6463 41.2705 33.4526 38.0769 29.4812 37.9672L18.8196 37.6728L29.4812 37.3784C33.4526 37.2688 36.6463 34.0751 36.7559 30.1037L37.0503 19.4421Z" fill="#fffafa" fill-opacity="0.2"></path>
                    </svg>
                  